<mxfile host="app.diagrams.net" modified="2024-07-08T16:55:12.153Z" agent="Mozilla/5.0 (Macintosh; Intel Mac OS X 10_15_7) AppleWebKit/537.36 (KHTML, like Gecko) Chrome/126.0.0.0 Safari/537.36" etag="Kcb2rK_nHwKyewxIMkJf" version="24.6.4" type="google" pages="2">
  <diagram name="Architecture" id="HAWaKZD-4K42_qD5MUuS">
    <mxGraphModel grid="1" page="1" gridSize="10" guides="1" tooltips="1" connect="1" arrows="1" fold="1" pageScale="1" pageWidth="850" pageHeight="1100" math="0" shadow="0">
      <root>
        <mxCell id="0" />
        <mxCell id="1" parent="0" />
        <mxCell id="G_n4rLv_Sjo01xtfhb_w-4" value="" style="ellipse;whiteSpace=wrap;html=1;aspect=fixed;fillColor=#FF9999;strokeColor=#FFFFFF;" vertex="1" parent="1">
          <mxGeometry x="193.31" y="300" width="464.38" height="464.38" as="geometry" />
        </mxCell>
        <mxCell id="ymVGFrT0E8_blkVKPVdr-1" value="" style="verticalLabelPosition=bottom;verticalAlign=top;html=1;shape=mxgraph.basic.half_circle;fillColor=#0066CC;strokeColor=#FFFFFF;" vertex="1" parent="1">
          <mxGeometry x="265.5" y="530" width="320" height="160" as="geometry" />
        </mxCell>
        <mxCell id="ymVGFrT0E8_blkVKPVdr-2" value="" style="verticalLabelPosition=bottom;verticalAlign=top;html=1;shape=mxgraph.basic.half_circle;rotation=-180;fillColor=#994C00;strokeColor=#FFFFFF;" vertex="1" parent="1">
          <mxGeometry x="264.75" y="370" width="320" height="160" as="geometry" />
        </mxCell>
        <mxCell id="G_n4rLv_Sjo01xtfhb_w-6" value="Domain" style="ellipse;whiteSpace=wrap;html=1;aspect=fixed;fontSize=18;labelBackgroundColor=#336600;fillColor=#336600;fontColor=#FFFFFF;strokeColor=#FFFFFF;" vertex="1" parent="1">
          <mxGeometry x="361" y="471.25" width="127.5" height="127.5" as="geometry" />
        </mxCell>
        <mxCell id="G_n4rLv_Sjo01xtfhb_w-11" value="Presentation&lt;div style=&quot;font-size: 18px;&quot;&gt;(*.svelte)&lt;/div&gt;" style="text;strokeColor=none;align=center;fillColor=none;html=1;verticalAlign=middle;whiteSpace=wrap;rounded=0;fontSize=18;fontColor=#FFFFFF;" vertex="1" parent="1">
          <mxGeometry x="395.5" y="410" width="60" height="30" as="geometry" />
        </mxCell>
        <mxCell id="G_n4rLv_Sjo01xtfhb_w-12" value="Data&lt;div style=&quot;font-size: 18px;&quot;&gt;(&quot;repositories&quot;)&lt;/div&gt;" style="text;strokeColor=none;align=center;fillColor=none;html=1;verticalAlign=middle;whiteSpace=wrap;rounded=0;fontSize=18;labelBackgroundColor=none;fontColor=#FFFFFF;" vertex="1" parent="1">
          <mxGeometry x="395.5" y="620" width="60" height="30" as="geometry" />
        </mxCell>
        <mxCell id="G_n4rLv_Sjo01xtfhb_w-13" value="Svelte Framework" style="text;strokeColor=none;align=center;fillColor=none;html=1;verticalAlign=middle;whiteSpace=wrap;rounded=0;fontSize=18;fontColor=#000000;" vertex="1" parent="1">
          <mxGeometry x="394.75" y="320" width="60" height="30" as="geometry" />
        </mxCell>
        <mxCell id="G_n4rLv_Sjo01xtfhb_w-14" value="Proskomma" style="text;strokeColor=none;align=center;fillColor=none;html=1;verticalAlign=middle;whiteSpace=wrap;rounded=0;rotation=-45;fontSize=18;fontColor=#000000;" vertex="1" parent="1">
          <mxGeometry x="530" y="650" width="90" height="30" as="geometry" />
        </mxCell>
        <mxCell id="G_n4rLv_Sjo01xtfhb_w-15" value="Static Files" style="text;strokeColor=none;align=center;fillColor=none;html=1;verticalAlign=middle;whiteSpace=wrap;rounded=0;rotation=45;fontSize=18;fontColor=#000000;" vertex="1" parent="1">
          <mxGeometry x="230" y="660" width="120" height="30" as="geometry" />
        </mxCell>
        <mxCell id="ymVGFrT0E8_blkVKPVdr-3" value="" style="endArrow=classic;html=1;rounded=0;fontColor=#FFFFFF;strokeColor=#FFFFFF;" edge="1" parent="1">
          <mxGeometry width="50" height="50" relative="1" as="geometry">
            <mxPoint x="240" y="460" as="sourcePoint" />
            <mxPoint x="310" y="481.25" as="targetPoint" />
          </mxGeometry>
        </mxCell>
        <mxCell id="ymVGFrT0E8_blkVKPVdr-6" value="" style="endArrow=classic;html=1;rounded=0;fontColor=#FFFFFF;strokeColor=#FFFFFF;" edge="1" parent="1">
          <mxGeometry width="50" height="50" relative="1" as="geometry">
            <mxPoint x="330" y="490" as="sourcePoint" />
            <mxPoint x="400" y="511.25" as="targetPoint" />
          </mxGeometry>
        </mxCell>
      </root>
    </mxGraphModel>
  </diagram>
  <diagram id="FcTNimasKNY4j0R9UOou" name="Data Flow">
    <mxGraphModel grid="1" page="1" gridSize="10" guides="1" tooltips="1" connect="1" arrows="1" fold="1" pageScale="1" pageWidth="850" pageHeight="1100" background="none" math="0" shadow="0">
      <root>
        <mxCell id="0" />
        <mxCell id="1" parent="0" />
        <mxCell id="ZzdY4lrXkh5P90bO4lC1-6" style="edgeStyle=orthogonalEdgeStyle;rounded=0;orthogonalLoop=1;jettySize=auto;html=1;entryX=0.5;entryY=1;entryDx=0;entryDy=0;exitX=0.816;exitY=0;exitDx=0;exitDy=0;exitPerimeter=0;" edge="1" parent="1" source="ZzdY4lrXkh5P90bO4lC1-2" target="ZzdY4lrXkh5P90bO4lC1-4">
          <mxGeometry relative="1" as="geometry" />
        </mxCell>
        <mxCell id="ZzdY4lrXkh5P90bO4lC1-2" value="+page.svelte" style="rounded=0;whiteSpace=wrap;html=1;fillColor=#994C00;fontColor=#FFFFFF;fontSize=14;" vertex="1" parent="1">
          <mxGeometry x="213" y="228" width="490" height="60" as="geometry" />
        </mxCell>
        <mxCell id="ZzdY4lrXkh5P90bO4lC1-7" style="edgeStyle=orthogonalEdgeStyle;rounded=0;orthogonalLoop=1;jettySize=auto;html=1;entryX=0.184;entryY=0.017;entryDx=0;entryDy=0;entryPerimeter=0;" edge="1" parent="1" source="ZzdY4lrXkh5P90bO4lC1-3" target="ZzdY4lrXkh5P90bO4lC1-2">
          <mxGeometry relative="1" as="geometry" />
        </mxCell>
        <mxCell id="ZzdY4lrXkh5P90bO4lC1-3" value="SearchForm.svelte" style="rounded=0;whiteSpace=wrap;html=1;fillColor=#994C00;fontColor=#FFFFFF;fontSize=14;" vertex="1" parent="1">
          <mxGeometry x="213" y="118" width="180" height="60" as="geometry" />
        </mxCell>
        <mxCell id="ZzdY4lrXkh5P90bO4lC1-4" value="SearchResultList.svelte" style="rounded=0;whiteSpace=wrap;html=1;fillColor=#994C00;fontColor=#FFFFFF;fontSize=14;" vertex="1" parent="1">
          <mxGeometry x="523" y="118" width="180" height="60" as="geometry" />
        </mxCell>
        <mxCell id="Sw8aYeC_bf_hx1XE_JZn-15" style="edgeStyle=orthogonalEdgeStyle;rounded=0;orthogonalLoop=1;jettySize=auto;html=1;entryX=0.142;entryY=1.019;entryDx=0;entryDy=0;entryPerimeter=0;" edge="1" parent="1" source="ZzdY4lrXkh5P90bO4lC1-8" target="ZzdY4lrXkh5P90bO4lC1-2">
          <mxGeometry relative="1" as="geometry">
            <Array as="points" />
          </mxGeometry>
        </mxCell>
        <mxCell id="ZzdY4lrXkh5P90bO4lC1-8" value="configure-search" style="rounded=0;whiteSpace=wrap;html=1;fillColor=#336600;fontColor=#FFFFFF;fontSize=14;" vertex="1" parent="1">
          <mxGeometry x="213" y="338" width="140" height="60" as="geometry" />
        </mxCell>
        <mxCell id="Sw8aYeC_bf_hx1XE_JZn-19" style="edgeStyle=orthogonalEdgeStyle;rounded=0;orthogonalLoop=1;jettySize=auto;html=1;entryX=0;entryY=0.5;entryDx=0;entryDy=0;" edge="1" parent="1" source="ZzdY4lrXkh5P90bO4lC1-9" target="ZzdY4lrXkh5P90bO4lC1-10">
          <mxGeometry relative="1" as="geometry" />
        </mxCell>
        <mxCell id="ZzdY4lrXkh5P90bO4lC1-9" value="config.js" style="ellipse;whiteSpace=wrap;html=1;aspect=fixed;fillColor=#FF9999;fontSize=14;" vertex="1" parent="1">
          <mxGeometry x="92" y="417" width="80" height="80" as="geometry" />
        </mxCell>
        <mxCell id="Sw8aYeC_bf_hx1XE_JZn-18" style="edgeStyle=orthogonalEdgeStyle;rounded=0;orthogonalLoop=1;jettySize=auto;html=1;entryX=0.5;entryY=1;entryDx=0;entryDy=0;" edge="1" parent="1" source="ZzdY4lrXkh5P90bO4lC1-10" target="ZzdY4lrXkh5P90bO4lC1-8">
          <mxGeometry relative="1" as="geometry" />
        </mxCell>
        <mxCell id="ZzdY4lrXkh5P90bO4lC1-10" value="search-config-repository" style="rounded=0;whiteSpace=wrap;html=1;fillColor=#0066CC;fontColor=#FFFFFF;fontSize=14;" vertex="1" parent="1">
          <mxGeometry x="248" y="438" width="70" height="140" as="geometry" />
        </mxCell>
        <mxCell id="Sw8aYeC_bf_hx1XE_JZn-20" style="edgeStyle=orthogonalEdgeStyle;rounded=0;orthogonalLoop=1;jettySize=auto;html=1;entryX=0;entryY=0.5;entryDx=0;entryDy=0;" edge="1" parent="1" source="ZzdY4lrXkh5P90bO4lC1-12" target="ZzdY4lrXkh5P90bO4lC1-10">
          <mxGeometry relative="1" as="geometry" />
        </mxCell>
        <mxCell id="ZzdY4lrXkh5P90bO4lC1-12" value="Svelte stores" style="whiteSpace=wrap;html=1;aspect=fixed;fillColor=#FF9999;fontSize=14;" vertex="1" parent="1">
          <mxGeometry x="92" y="508" width="80" height="80" as="geometry" />
        </mxCell>
        <mxCell id="Sw8aYeC_bf_hx1XE_JZn-22" style="edgeStyle=orthogonalEdgeStyle;rounded=0;orthogonalLoop=1;jettySize=auto;html=1;entryX=0.713;entryY=0.976;entryDx=0;entryDy=0;entryPerimeter=0;" edge="1" parent="1" source="ZzdY4lrXkh5P90bO4lC1-13" target="ZzdY4lrXkh5P90bO4lC1-2">
          <mxGeometry relative="1" as="geometry" />
        </mxCell>
        <mxCell id="Sw8aYeC_bf_hx1XE_JZn-24" style="edgeStyle=orthogonalEdgeStyle;rounded=0;orthogonalLoop=1;jettySize=auto;html=1;exitX=0.215;exitY=0.969;exitDx=0;exitDy=0;entryX=0.5;entryY=0;entryDx=0;entryDy=0;exitPerimeter=0;" edge="1" parent="1" source="ZzdY4lrXkh5P90bO4lC1-13" target="Sw8aYeC_bf_hx1XE_JZn-1">
          <mxGeometry relative="1" as="geometry" />
        </mxCell>
        <mxCell id="ZzdY4lrXkh5P90bO4lC1-13" value="search-session" style="rounded=0;whiteSpace=wrap;html=1;fillColor=#336600;fontColor=#FFFFFF;fontSize=14;" vertex="1" parent="1">
          <mxGeometry x="423" y="338" width="280" height="60" as="geometry" />
        </mxCell>
        <mxCell id="Sw8aYeC_bf_hx1XE_JZn-28" style="edgeStyle=orthogonalEdgeStyle;rounded=0;orthogonalLoop=1;jettySize=auto;html=1;entryX=0.5;entryY=0;entryDx=0;entryDy=0;" edge="1" parent="1" source="Sw8aYeC_bf_hx1XE_JZn-1" target="Sw8aYeC_bf_hx1XE_JZn-6">
          <mxGeometry relative="1" as="geometry" />
        </mxCell>
        <mxCell id="Sw8aYeC_bf_hx1XE_JZn-1" value="search-session-external" style="rounded=0;whiteSpace=wrap;html=1;fillColor=#336600;fontColor=#FFFFFF;fontSize=14;" vertex="1" parent="1">
          <mxGeometry x="423" y="438" width="120" height="60" as="geometry" />
        </mxCell>
        <mxCell id="Sw8aYeC_bf_hx1XE_JZn-2" value="search-query-external" style="rounded=0;whiteSpace=wrap;html=1;fillColor=#336600;fontColor=#FFFFFF;fontSize=14;" vertex="1" parent="1">
          <mxGeometry x="593" y="438" width="110" height="60" as="geometry" />
        </mxCell>
        <mxCell id="Sw8aYeC_bf_hx1XE_JZn-4" value="Web Worker" style="swimlane;startSize=0;" vertex="1" parent="1">
          <mxGeometry x="363" y="538" width="370" height="370" as="geometry" />
        </mxCell>
        <mxCell id="Sw8aYeC_bf_hx1XE_JZn-30" style="edgeStyle=orthogonalEdgeStyle;rounded=0;orthogonalLoop=1;jettySize=auto;html=1;" edge="1" parent="Sw8aYeC_bf_hx1XE_JZn-4" source="Sw8aYeC_bf_hx1XE_JZn-6" target="Sw8aYeC_bf_hx1XE_JZn-7">
          <mxGeometry relative="1" as="geometry" />
        </mxCell>
        <mxCell id="Sw8aYeC_bf_hx1XE_JZn-6" value="search-session-internal" style="rounded=0;whiteSpace=wrap;html=1;fillColor=#336600;fontColor=#FFFFFF;fontSize=14;" vertex="1" parent="Sw8aYeC_bf_hx1XE_JZn-4">
          <mxGeometry x="60" y="20" width="120" height="60" as="geometry" />
        </mxCell>
        <mxCell id="Sw8aYeC_bf_hx1XE_JZn-7" value="search-query-internal" style="rounded=0;whiteSpace=wrap;html=1;fillColor=#336600;fontColor=#FFFFFF;fontSize=14;" vertex="1" parent="Sw8aYeC_bf_hx1XE_JZn-4">
          <mxGeometry x="235" y="20" width="100" height="60" as="geometry" />
        </mxCell>
        <mxCell id="Sw8aYeC_bf_hx1XE_JZn-33" style="edgeStyle=orthogonalEdgeStyle;rounded=0;orthogonalLoop=1;jettySize=auto;html=1;entryX=0;entryY=0.5;entryDx=0;entryDy=0;" edge="1" parent="Sw8aYeC_bf_hx1XE_JZn-4" source="Sw8aYeC_bf_hx1XE_JZn-9" target="Sw8aYeC_bf_hx1XE_JZn-10">
          <mxGeometry relative="1" as="geometry" />
        </mxCell>
        <mxCell id="Sw8aYeC_bf_hx1XE_JZn-9" value="pk-worker-search-repository" style="rounded=0;whiteSpace=wrap;html=1;fillColor=#0066CC;fontColor=#FFFFFF;fontSize=14;" vertex="1" parent="Sw8aYeC_bf_hx1XE_JZn-4">
          <mxGeometry x="20" y="110" width="80" height="130" as="geometry" />
        </mxCell>
        <mxCell id="Sw8aYeC_bf_hx1XE_JZn-34" style="edgeStyle=orthogonalEdgeStyle;rounded=0;orthogonalLoop=1;jettySize=auto;html=1;entryX=0;entryY=0.5;entryDx=0;entryDy=0;" edge="1" parent="Sw8aYeC_bf_hx1XE_JZn-4" source="Sw8aYeC_bf_hx1XE_JZn-10" target="Sw8aYeC_bf_hx1XE_JZn-11">
          <mxGeometry relative="1" as="geometry" />
        </mxCell>
        <mxCell id="Sw8aYeC_bf_hx1XE_JZn-10" value="pk-search-repository" style="rounded=0;whiteSpace=wrap;html=1;fillColor=#0066CC;fontColor=#FFFFFF;fontSize=14;" vertex="1" parent="Sw8aYeC_bf_hx1XE_JZn-4">
          <mxGeometry x="140" y="110" width="70" height="130" as="geometry" />
        </mxCell>
        <mxCell id="Sw8aYeC_bf_hx1XE_JZn-35" style="edgeStyle=orthogonalEdgeStyle;rounded=0;orthogonalLoop=1;jettySize=auto;html=1;entryX=0.5;entryY=1;entryDx=0;entryDy=0;" edge="1" parent="Sw8aYeC_bf_hx1XE_JZn-4" source="Sw8aYeC_bf_hx1XE_JZn-11" target="Sw8aYeC_bf_hx1XE_JZn-7">
          <mxGeometry relative="1" as="geometry" />
        </mxCell>
        <mxCell id="Sw8aYeC_bf_hx1XE_JZn-11" value="scripture-repository" style="rounded=0;whiteSpace=wrap;html=1;fillColor=#0066CC;fontColor=#FFFFFF;fontSize=14;" vertex="1" parent="Sw8aYeC_bf_hx1XE_JZn-4">
          <mxGeometry x="250" y="107" width="70" height="135" as="geometry" />
        </mxCell>
        <mxCell id="Sw8aYeC_bf_hx1XE_JZn-36" style="edgeStyle=orthogonalEdgeStyle;rounded=0;orthogonalLoop=1;jettySize=auto;html=1;entryX=0.5;entryY=1;entryDx=0;entryDy=0;" edge="1" parent="Sw8aYeC_bf_hx1XE_JZn-4" source="Sw8aYeC_bf_hx1XE_JZn-13" target="Sw8aYeC_bf_hx1XE_JZn-10">
          <mxGeometry relative="1" as="geometry" />
        </mxCell>
        <mxCell id="Sw8aYeC_bf_hx1XE_JZn-13" value="Proskomma" style="rounded=0;whiteSpace=wrap;html=1;fillColor=#FF9999;fontSize=14;" vertex="1" parent="Sw8aYeC_bf_hx1XE_JZn-4">
          <mxGeometry x="20" y="280" width="310" height="60" as="geometry" />
        </mxCell>
        <mxCell id="Sw8aYeC_bf_hx1XE_JZn-32" style="edgeStyle=orthogonalEdgeStyle;rounded=0;orthogonalLoop=1;jettySize=auto;html=1;entryX=0;entryY=0.5;entryDx=0;entryDy=0;" edge="1" parent="1" source="Sw8aYeC_bf_hx1XE_JZn-8" target="Sw8aYeC_bf_hx1XE_JZn-9">
          <mxGeometry relative="1" as="geometry" />
        </mxCell>
        <mxCell id="Sw8aYeC_bf_hx1XE_JZn-8" value="worker-request-repository" style="rounded=0;whiteSpace=wrap;html=1;fillColor=#0066CC;fontColor=#FFFFFF;fontSize=14;" vertex="1" parent="1">
          <mxGeometry x="223" y="658" width="80" height="110" as="geometry" />
        </mxCell>
        <mxCell id="Sw8aYeC_bf_hx1XE_JZn-31" style="edgeStyle=orthogonalEdgeStyle;rounded=0;orthogonalLoop=1;jettySize=auto;html=1;entryX=0;entryY=0.5;entryDx=0;entryDy=0;" edge="1" parent="1" source="Sw8aYeC_bf_hx1XE_JZn-14" target="Sw8aYeC_bf_hx1XE_JZn-8">
          <mxGeometry relative="1" as="geometry" />
        </mxCell>
        <mxCell id="Sw8aYeC_bf_hx1XE_JZn-14" value="Docset URL" style="whiteSpace=wrap;html=1;aspect=fixed;fillColor=#FF9999;fontSize=14;" vertex="1" parent="1">
          <mxGeometry x="93" y="673" width="80" height="80" as="geometry" />
        </mxCell>
        <mxCell id="Sw8aYeC_bf_hx1XE_JZn-26" style="edgeStyle=orthogonalEdgeStyle;rounded=0;orthogonalLoop=1;jettySize=auto;html=1;entryX=0.802;entryY=1.027;entryDx=0;entryDy=0;entryPerimeter=0;" edge="1" parent="1" source="Sw8aYeC_bf_hx1XE_JZn-2" target="ZzdY4lrXkh5P90bO4lC1-13">
          <mxGeometry relative="1" as="geometry" />
        </mxCell>
        <mxCell id="Sw8aYeC_bf_hx1XE_JZn-29" style="edgeStyle=orthogonalEdgeStyle;rounded=0;orthogonalLoop=1;jettySize=auto;html=1;entryX=0.5;entryY=1;entryDx=0;entryDy=0;" edge="1" parent="1" source="Sw8aYeC_bf_hx1XE_JZn-7" target="Sw8aYeC_bf_hx1XE_JZn-2">
          <mxGeometry relative="1" as="geometry" />
        </mxCell>
        <mxCell id="Sw8aYeC_bf_hx1XE_JZn-38" style="edgeStyle=orthogonalEdgeStyle;rounded=0;orthogonalLoop=1;jettySize=auto;html=1;entryX=0;entryY=0.75;entryDx=0;entryDy=0;" edge="1" parent="1" source="Sw8aYeC_bf_hx1XE_JZn-37" target="Sw8aYeC_bf_hx1XE_JZn-9">
          <mxGeometry relative="1" as="geometry" />
        </mxCell>
        <mxCell id="Sw8aYeC_bf_hx1XE_JZn-37" value="*.pkf" style="ellipse;whiteSpace=wrap;html=1;aspect=fixed;fillColor=#FF9999;fontSize=14;" vertex="1" parent="1">
          <mxGeometry x="223" y="808" width="80" height="80" as="geometry" />
        </mxCell>
        <mxCell id="vzNPkypBOgnWiTdVVzns-1" value="" style="whiteSpace=wrap;html=1;aspect=fixed;fillColor=#994C00;" vertex="1" parent="1">
          <mxGeometry x="73" y="948" width="10" height="10" as="geometry" />
        </mxCell>
        <mxCell id="vzNPkypBOgnWiTdVVzns-2" value="" style="whiteSpace=wrap;html=1;aspect=fixed;fillColor=#336600;" vertex="1" parent="1">
          <mxGeometry x="73" y="968" width="10" height="10" as="geometry" />
        </mxCell>
        <mxCell id="vzNPkypBOgnWiTdVVzns-3" value="" style="whiteSpace=wrap;html=1;aspect=fixed;fillColor=#0066CC;" vertex="1" parent="1">
          <mxGeometry x="73" y="988" width="10" height="10" as="geometry" />
        </mxCell>
        <mxCell id="vzNPkypBOgnWiTdVVzns-4" value="" style="whiteSpace=wrap;html=1;aspect=fixed;fillColor=#FF9999;" vertex="1" parent="1">
          <mxGeometry x="73" y="1008" width="10" height="10" as="geometry" />
        </mxCell>
        <mxCell id="vzNPkypBOgnWiTdVVzns-6" value="Presentation" style="text;strokeColor=none;align=left;fillColor=none;html=1;verticalAlign=middle;whiteSpace=wrap;rounded=0;fontSize=14;" vertex="1" parent="1">
          <mxGeometry x="102" y="938" width="60" height="30" as="geometry" />
        </mxCell>
        <mxCell id="vzNPkypBOgnWiTdVVzns-7" value="Domain" style="text;strokeColor=none;align=left;fillColor=none;html=1;verticalAlign=middle;whiteSpace=wrap;rounded=0;fontSize=14;" vertex="1" parent="1">
          <mxGeometry x="102" y="958" width="60" height="30" as="geometry" />
        </mxCell>
        <mxCell id="vzNPkypBOgnWiTdVVzns-8" value="Data" style="text;strokeColor=none;align=left;fillColor=none;html=1;verticalAlign=middle;whiteSpace=wrap;rounded=0;fontSize=14;" vertex="1" parent="1">
          <mxGeometry x="102" y="978" width="60" height="30" as="geometry" />
        </mxCell>
        <mxCell id="vzNPkypBOgnWiTdVVzns-9" value="External" style="text;strokeColor=none;align=left;fillColor=none;html=1;verticalAlign=middle;whiteSpace=wrap;rounded=0;fontSize=14;" vertex="1" parent="1">
          <mxGeometry x="102" y="998" width="60" height="30" as="geometry" />
        </mxCell>
        <mxCell id="vzNPkypBOgnWiTdVVzns-10" value="Key" style="swimlane;startSize=0;" vertex="1" parent="1">
          <mxGeometry x="43" y="920" width="170" height="120" as="geometry" />
        </mxCell>
        <mxCell id="vzNPkypBOgnWiTdVVzns-11" value="&lt;h1 style=&quot;line-height: 120%;&quot;&gt;&lt;font style=&quot;font-size: 30px;&quot;&gt;PWA Search Data Flow&lt;/font&gt;&lt;/h1&gt;" style="text;strokeColor=none;align=center;fillColor=none;html=1;verticalAlign=middle;whiteSpace=wrap;rounded=0;" vertex="1" parent="1">
          <mxGeometry x="278" y="40" width="360" height="30" as="geometry" />
        </mxCell>
      </root>
    </mxGraphModel>
  </diagram>
</mxfile>
